<svg xmlns="http://www.w3.org/2000/svg" width="400" height="400" viewBox="0 0 400 400">
  <rect width="400" height="400" fill="#f0f0f0"/>
  <g fill="#999">
    <path d="M200 100c-55.228 0-100 44.772-100 100s44.772 100 100 100 100-44.772 100-100-44.772-100-100-100zm0 20c44.183 0 80 35.817 80 80s-35.817 80-80 80-80-35.817-80-80 35.817-80 80-80z"/>
    <path d="M160 160h80v80h-80z"/>
    <circle cx="180" cy="180" r="10"/>
    <path d="M160 220l30-30 20 20 30-30v40h-80z"/>
  </g>
  <text x="200" y="350" text-anchor="middle" font-family="Arial, sans-serif" font-size="14" fill="#666">Image Not Available</text>
</svg>